<svg width="1062" height="748" viewBox="0 0 1062 748" fill="none" xmlns="http://www.w3.org/2000/svg">
<g clip-path="url(#clip0_132_80)">
<rect width="1062" height="748" fill="#3478F6"/>
<path d="M478.294 696.12C477.862 695.288 477.262 694.664 476.494 694.248C475.726 693.816 474.838 693.6 473.83 693.6C472.726 693.6 471.742 693.848 470.878 694.344C470.014 694.84 469.334 695.544 468.838 696.456C468.358 697.368 468.118 698.424 468.118 699.624C468.118 700.824 468.358 701.888 468.838 702.816C469.334 703.728 470.014 704.432 470.878 704.928C471.742 705.424 472.726 705.672 473.83 705.672C475.318 705.672 476.526 705.256 477.454 704.424C478.382 703.592 478.95 702.464 479.158 701.04H472.894V698.856H482.086V700.992C481.91 702.288 481.446 703.48 480.694 704.568C479.958 705.656 478.99 706.528 477.79 707.184C476.606 707.824 475.286 708.144 473.83 708.144C472.262 708.144 470.83 707.784 469.534 707.064C468.238 706.328 467.206 705.312 466.438 704.016C465.686 702.72 465.31 701.256 465.31 699.624C465.31 697.992 465.686 696.528 466.438 695.232C467.206 693.936 468.238 692.928 469.534 692.208C470.846 691.472 472.278 691.104 473.83 691.104C475.606 691.104 477.182 691.544 478.558 692.424C479.95 693.288 480.958 694.52 481.582 696.12H478.294ZM496.904 701.064C496.904 701.56 496.872 702.008 496.808 702.408H486.704C486.784 703.464 487.176 704.312 487.88 704.952C488.584 705.592 489.448 705.912 490.472 705.912C491.944 705.912 492.984 705.296 493.592 704.064H496.544C496.144 705.28 495.416 706.28 494.36 707.064C493.32 707.832 492.024 708.216 490.472 708.216C489.208 708.216 488.072 707.936 487.064 707.376C486.072 706.8 485.288 706 484.712 704.976C484.152 703.936 483.872 702.736 483.872 701.376C483.872 700.016 484.144 698.824 484.688 697.8C485.248 696.76 486.024 695.96 487.016 695.4C488.024 694.84 489.176 694.56 490.472 694.56C491.72 694.56 492.832 694.832 493.808 695.376C494.784 695.92 495.544 696.688 496.088 697.68C496.632 698.656 496.904 699.784 496.904 701.064ZM494.048 700.2C494.032 699.192 493.672 698.384 492.968 697.776C492.264 697.168 491.392 696.864 490.352 696.864C489.408 696.864 488.6 697.168 487.928 697.776C487.256 698.368 486.856 699.176 486.728 700.2H494.048ZM502.789 697.008V704.328C502.789 704.824 502.901 705.184 503.125 705.408C503.365 705.616 503.765 705.72 504.325 705.72H506.005V708H503.845C502.613 708 501.669 707.712 501.013 707.136C500.357 706.56 500.029 705.624 500.029 704.328V697.008H498.469V694.776H500.029V691.488H502.789V694.776H506.005V697.008H502.789ZM517.455 699.432C518.351 699.592 519.111 700.064 519.735 700.848C520.359 701.632 520.671 702.52 520.671 703.512C520.671 704.36 520.447 705.128 519.999 705.816C519.567 706.488 518.935 707.024 518.103 707.424C517.271 707.808 516.303 708 515.199 708H508.527V691.32H514.887C516.023 691.32 516.999 691.512 517.815 691.896C518.631 692.28 519.247 692.8 519.663 693.456C520.079 694.096 520.287 694.816 520.287 695.616C520.287 696.576 520.031 697.376 519.519 698.016C519.007 698.656 518.319 699.128 517.455 699.432ZM511.263 698.328H514.647C515.543 698.328 516.239 698.128 516.735 697.728C517.247 697.312 517.503 696.72 517.503 695.952C517.503 695.2 517.247 694.616 516.735 694.2C516.239 693.768 515.543 693.552 514.647 693.552H511.263V698.328ZM514.959 705.768C515.887 705.768 516.615 705.544 517.143 705.096C517.671 704.648 517.935 704.024 517.935 703.224C517.935 702.408 517.655 701.76 517.095 701.28C516.535 700.8 515.791 700.56 514.863 700.56H511.263V705.768H514.959ZM526.38 690.24V708H523.644V690.24H526.38ZM535.708 708.216C534.46 708.216 533.332 707.936 532.324 707.376C531.316 706.8 530.524 706 529.948 704.976C529.372 703.936 529.084 702.736 529.084 701.376C529.084 700.032 529.38 698.84 529.972 697.8C530.564 696.76 531.372 695.96 532.396 695.4C533.42 694.84 534.564 694.56 535.828 694.56C537.092 694.56 538.236 694.84 539.26 695.4C540.284 695.96 541.092 696.76 541.684 697.8C542.276 698.84 542.572 700.032 542.572 701.376C542.572 702.72 542.268 703.912 541.66 704.952C541.052 705.992 540.22 706.8 539.164 707.376C538.124 707.936 536.972 708.216 535.708 708.216ZM535.708 705.84C536.412 705.84 537.068 705.672 537.676 705.336C538.3 705 538.804 704.496 539.188 703.824C539.572 703.152 539.764 702.336 539.764 701.376C539.764 700.416 539.58 699.608 539.212 698.952C538.844 698.28 538.356 697.776 537.748 697.44C537.14 697.104 536.484 696.936 535.78 696.936C535.076 696.936 534.42 697.104 533.812 697.44C533.22 697.776 532.748 698.28 532.396 698.952C532.044 699.608 531.868 700.416 531.868 701.376C531.868 702.8 532.228 703.904 532.948 704.688C533.684 705.456 534.604 705.84 535.708 705.84ZM544.365 701.376C544.365 700.016 544.637 698.824 545.181 697.8C545.741 696.76 546.509 695.96 547.485 695.4C548.461 694.84 549.581 694.56 550.845 694.56C552.445 694.56 553.765 694.944 554.805 695.712C555.861 696.464 556.573 697.544 556.941 698.952H553.989C553.749 698.296 553.365 697.784 552.837 697.416C552.309 697.048 551.645 696.864 550.845 696.864C549.725 696.864 548.829 697.264 548.157 698.064C547.501 698.848 547.173 699.952 547.173 701.376C547.173 702.8 547.501 703.912 548.157 704.712C548.829 705.512 549.725 705.912 550.845 705.912C552.429 705.912 553.477 705.216 553.989 703.824H556.941C556.557 705.168 555.837 706.24 554.781 707.04C553.725 707.824 552.413 708.216 550.845 708.216C549.581 708.216 548.461 707.936 547.485 707.376C546.509 706.8 545.741 706 545.181 704.976C544.637 703.936 544.365 702.736 544.365 701.376ZM564.899 701.4L570.995 708H567.299L562.403 702.312V708H559.667V690.24H562.403V700.56L567.203 694.776H570.995L564.899 701.4ZM574.06 708.168C573.564 708.168 573.148 708 572.812 707.664C572.476 707.328 572.308 706.912 572.308 706.416C572.308 705.92 572.476 705.504 572.812 705.168C573.148 704.832 573.564 704.664 574.06 704.664C574.54 704.664 574.948 704.832 575.284 705.168C575.62 705.504 575.788 705.92 575.788 706.416C575.788 706.912 575.62 707.328 575.284 707.664C574.948 708 574.54 708.168 574.06 708.168ZM580.137 693.024C579.641 693.024 579.225 692.856 578.889 692.52C578.553 692.184 578.385 691.768 578.385 691.272C578.385 690.776 578.553 690.36 578.889 690.024C579.225 689.688 579.641 689.52 580.137 689.52C580.617 689.52 581.025 689.688 581.361 690.024C581.697 690.36 581.865 690.776 581.865 691.272C581.865 691.768 581.697 692.184 581.361 692.52C581.025 692.856 580.617 693.024 580.137 693.024ZM581.481 694.776V708H578.745V694.776H581.481ZM590.809 708.216C589.561 708.216 588.433 707.936 587.425 707.376C586.417 706.8 585.625 706 585.049 704.976C584.473 703.936 584.185 702.736 584.185 701.376C584.185 700.032 584.481 698.84 585.073 697.8C585.665 696.76 586.473 695.96 587.497 695.4C588.521 694.84 589.665 694.56 590.929 694.56C592.193 694.56 593.337 694.84 594.361 695.4C595.385 695.96 596.193 696.76 596.785 697.8C597.377 698.84 597.673 700.032 597.673 701.376C597.673 702.72 597.369 703.912 596.761 704.952C596.153 705.992 595.321 706.8 594.265 707.376C593.225 707.936 592.073 708.216 590.809 708.216ZM590.809 705.84C591.513 705.84 592.169 705.672 592.777 705.336C593.401 705 593.905 704.496 594.289 703.824C594.673 703.152 594.865 702.336 594.865 701.376C594.865 700.416 594.681 699.608 594.313 698.952C593.945 698.28 593.457 697.776 592.849 697.44C592.241 697.104 591.585 696.936 590.881 696.936C590.177 696.936 589.521 697.104 588.913 697.44C588.321 697.776 587.849 698.28 587.497 698.952C587.145 699.608 586.969 700.416 586.969 701.376C586.969 702.8 587.329 703.904 588.049 704.688C588.785 705.456 589.705 705.84 590.809 705.84Z" fill="white"/>
<path d="M448.559 -19.8551C448.559 -19.8551 409.966 126.657 545.865 164.353C681.763 202.05 971.259 -57.4146 971.259 -57.4146C971.259 -57.4146 705.45 277.28 716.106 309.007C726.763 340.733 1241.55 75.1949 1241.55 75.1949L983.682 420.975" stroke="white" stroke-opacity="0.1" stroke-width="128"/>
<path d="M517.312 803.907C517.312 803.907 587.23 661.34 434.212 595.545C281.194 529.75 -101.96 738.078 -101.96 738.078C-101.96 738.078 266.08 447.86 258.925 413.192C251.769 378.525 -396.595 548.104 -396.595 548.104L-36.0036 244.931" stroke="white" stroke-opacity="0.1" stroke-width="128"/>
<g filter="url(#filter0_d_132_80)">
<rect x="154" y="196.515" width="392.841" height="192" rx="96" transform="rotate(-6.21303 154 196.515)" fill="white"/>
<path d="M320.299 246.973L310.834 304.174L297.711 305.602L282.99 267.21L276.397 307.923L263.363 309.422L242.36 255.458L254.289 254.16L268.764 296.2L275.365 251.865L287.771 250.515L303.095 292.221L308.29 248.281L320.299 246.973ZM372.068 274.251C372.242 275.842 372.291 277.285 372.218 278.58L340.008 282.087C340.619 285.239 342.004 287.61 344.162 289.199C346.32 290.788 348.831 291.427 351.694 291.115C355.829 290.665 358.579 288.568 359.942 284.825L371.951 283.518C371.14 287.898 369.082 291.663 365.777 294.813C362.466 297.909 358.186 299.743 352.937 300.315C348.695 300.776 344.777 300.264 341.181 298.778C337.633 297.233 334.717 294.841 332.433 291.602C330.203 288.358 328.842 284.483 328.351 279.976C327.855 275.416 328.347 271.312 329.827 267.664C331.308 264.015 333.617 261.082 336.755 258.862C339.894 256.643 343.637 255.297 347.984 254.823C352.173 254.367 356.009 254.862 359.492 256.307C363.029 257.746 365.88 260.037 368.047 263.181C370.26 266.266 371.601 269.956 372.068 274.251ZM360.19 272.325C359.825 269.468 358.543 267.301 356.344 265.823C354.139 264.293 351.578 263.686 348.662 264.004C345.905 264.304 343.664 265.406 341.94 267.311C340.264 269.156 339.375 271.587 339.274 274.602L360.19 272.325ZM389.736 257.521C390.937 255.244 392.711 253.307 395.059 251.71C397.46 250.108 400.277 249.131 403.511 248.778C407.276 248.369 410.77 248.927 413.994 250.454C417.271 251.975 419.972 254.363 422.097 257.619C424.269 260.816 425.601 264.668 426.091 269.174C426.582 273.681 426.116 277.782 424.695 281.478C423.32 285.115 421.199 288.055 418.332 290.298C415.517 292.536 412.228 293.86 408.464 294.27C405.176 294.628 402.218 294.306 399.587 293.305C397.004 292.245 394.857 290.762 393.148 288.855L393.832 295.138L382.697 296.35L376.291 237.498L387.425 236.286L389.736 257.521ZM414.718 270.413C414.43 267.762 413.625 265.542 412.304 263.755C411.03 261.909 409.437 260.58 407.524 259.769C405.665 258.952 403.701 258.656 401.634 258.881C399.619 259.1 397.768 259.838 396.081 261.095C394.441 262.293 393.171 263.933 392.271 266.016C391.424 268.093 391.145 270.457 391.433 273.108C391.722 275.759 392.503 278.008 393.777 279.854C395.104 281.695 396.7 283.05 398.565 283.92C400.478 284.731 402.441 285.027 404.456 284.808C406.524 284.583 408.375 283.845 410.009 282.594C411.696 281.337 412.963 279.67 413.81 277.593C414.71 275.51 415.013 273.117 414.718 270.413ZM430.835 247.896C430.523 242.565 431.934 238.281 435.069 235.042C438.251 231.745 442.678 229.788 448.351 229.17C452.222 228.749 455.611 229.078 458.518 230.156C461.419 231.181 463.686 232.785 465.318 234.968C466.998 237.092 467.997 239.612 468.314 242.528C468.678 245.869 468.112 248.8 466.616 251.324C465.168 253.788 463.294 255.548 460.994 256.603L461.029 256.921C464.208 257.541 466.779 258.978 468.741 261.232C470.756 263.481 471.971 266.513 472.387 270.331C472.733 273.512 472.3 276.429 471.087 279.083C469.926 281.731 467.993 283.926 465.285 285.67C462.625 287.354 459.307 288.413 455.331 288.846C449.339 289.498 444.297 288.518 440.204 285.905C436.11 283.293 433.637 279.056 432.784 273.194L443.6 272.016C443.989 274.603 445.092 276.602 446.909 278.013C448.773 279.366 451.163 279.884 454.079 279.567C456.783 279.272 458.77 278.305 460.04 276.664C461.357 274.965 461.886 272.923 461.626 270.537C461.28 267.356 460.024 265.185 457.859 264.026C455.695 262.867 452.491 262.518 448.25 262.98L445.943 263.231L444.948 254.085L447.254 253.834C454.783 253.014 458.273 250.086 457.725 245.049C457.477 242.769 456.594 241.068 455.077 239.946C453.613 238.818 451.608 238.392 449.063 238.669C446.572 238.94 444.711 239.84 443.483 241.369C442.302 242.839 441.718 244.619 441.731 246.71L430.835 247.896Z" fill="url(#paint0_linear_132_80)"/>
</g>
<g filter="url(#filter1_d_132_80)">
<rect x="273" y="411" width="144" height="144" rx="72" fill="white"/>
<path d="M297 483C297 456.49 318.49 435 345 435C371.51 435 393 456.49 393 483C393 509.51 371.51 531 345 531C318.49 531 297 509.51 297 483Z" fill="#32ADE6"/>
<path d="M344.446 473.457L366.392 483.414L344.446 447V473.457Z" fill="white" fill-opacity="0.5"/>
<path d="M344.446 473.44V447L322.5 483.414L344.446 473.44Z" fill="white"/>
<path d="M344.446 518.501L366.406 487.576L344.446 500.541L344.446 518.501Z" fill="white" fill-opacity="0.5"/>
<path d="M322.5 487.576L344.446 518.501V500.541L322.5 487.576Z" fill="white"/>
<path d="M344.446 473.439V496.386L366.392 483.414L344.446 473.439Z" fill="white" fill-opacity="0.25"/>
<path d="M344.446 473.439L322.5 483.414L344.446 496.386V473.439Z" fill="white" fill-opacity="0.5"/>
</g>
<g filter="url(#filter2_d_132_80)">
<rect x="482" y="459" width="144" height="144" rx="72" fill="white"/>
<path d="M506 531C506 504.49 527.49 483 554 483C580.51 483 602 504.49 602 531C602 557.51 580.51 579 554 579C527.49 579 506 557.51 506 531Z" fill="black"/>
<path d="M534.861 543.677C535.213 543.317 535.691 543.115 536.189 543.115H582.158C582.996 543.115 583.415 544.149 582.823 544.753L573.739 554.019C573.387 554.378 572.909 554.58 572.411 554.58H526.442C525.604 554.58 525.185 553.546 525.777 552.942L534.861 543.677Z" fill="url(#paint1_linear_132_80)"/>
<path d="M534.861 509.061C535.213 508.702 535.691 508.5 536.189 508.5H582.158C582.996 508.5 583.415 509.534 582.823 510.138L573.739 519.403C573.387 519.763 572.909 519.965 572.411 519.965H526.442C525.604 519.965 525.185 518.931 525.777 518.327L534.861 509.061Z" fill="url(#paint2_linear_132_80)"/>
<path d="M573.739 526.259C573.387 525.899 572.909 525.697 572.411 525.697H526.442C525.604 525.697 525.185 526.731 525.777 527.335L534.861 536.601C535.213 536.96 535.691 537.162 536.189 537.162H582.158C582.996 537.162 583.415 536.128 582.823 535.524L573.739 526.259Z" fill="url(#paint3_linear_132_80)"/>
</g>
<rect x="773.092" y="189.462" width="92.0476" height="35.1511" transform="rotate(-52.3631 773.092 189.462)" fill="#00C860"/>
<rect x="774.933" y="255.094" width="136.656" height="35.1511" transform="rotate(-35.5212 774.933 255.094)" fill="#00C860"/>
<g filter="url(#filter3_d_132_80)">
<rect x="516" y="139" width="298" height="298" rx="149" fill="white"/>
<path fill-rule="evenodd" clip-rule="evenodd" d="M573.854 288C573.854 237.661 614.662 196.854 665 196.854C715.339 196.854 756.146 237.661 756.146 288C756.146 338.338 715.339 379.146 665 379.146C614.662 379.146 573.854 338.338 573.854 288ZM649.576 269.899C649.576 260.856 656.656 253.845 665 253.845C673.345 253.845 680.425 260.856 680.425 269.899C680.425 276.979 676.045 282.877 670.126 285.047C664.943 286.948 658.39 291.978 658.39 300.119C658.39 303.77 661.349 306.73 665 306.73C668.651 306.73 671.611 303.77 671.611 300.119C671.611 299.981 671.647 299.639 672.151 299.078C672.689 298.478 673.581 297.862 674.679 297.46C685.817 293.375 693.646 282.512 693.646 269.899C693.646 253.908 680.995 240.624 665 240.624C649.005 240.624 636.354 253.908 636.354 269.899C636.354 273.55 639.314 276.51 642.965 276.51C646.616 276.51 649.576 273.55 649.576 269.899ZM665 335.375C669.868 335.375 673.814 331.429 673.814 326.561C673.814 321.693 669.868 317.747 665 317.747C660.132 317.747 656.186 321.693 656.186 326.561C656.186 331.429 660.132 335.375 665 335.375Z" fill="#EB5165"/>
<rect x="511" y="134" width="308" height="308" rx="154" stroke="#3478F6" stroke-width="10"/>
</g>
<g filter="url(#filter4_d_132_80)">
<rect x="692" y="379" width="148" height="148" rx="74" fill="white"/>
<rect x="716" y="403" width="100" height="100" rx="50" fill="#32ADE6"/>
<path d="M766.345 452.93V488.588L736 471.123V435.465L766.345 452.93Z" fill="white"/>
<path opacity="0.25" d="M766.346 452.93L796.691 435.465V471.123L766.346 488.588V452.93Z" fill="white"/>
<path opacity="0.5" d="M766.345 418L796.69 435.465L766.345 452.93L736 435.465L766.345 418Z" fill="white"/>
<rect x="687" y="374" width="158" height="158" rx="79" stroke="#3478F6" stroke-width="10"/>
</g>
</g>
<defs>
<filter id="filter0_d_132_80" x="130" y="142" width="459.312" height="281.387" filterUnits="userSpaceOnUse" color-interpolation-filters="sRGB">
<feFlood flood-opacity="0" result="BackgroundImageFix"/>
<feColorMatrix in="SourceAlpha" type="matrix" values="0 0 0 0 0 0 0 0 0 0 0 0 0 0 0 0 0 0 127 0" result="hardAlpha"/>
<feOffset dy="12"/>
<feGaussianBlur stdDeviation="12"/>
<feComposite in2="hardAlpha" operator="out"/>
<feColorMatrix type="matrix" values="0 0 0 0 0 0 0 0 0 0 0 0 0 0 0 0 0 0 0.025 0"/>
<feBlend mode="normal" in2="BackgroundImageFix" result="effect1_dropShadow_132_80"/>
<feBlend mode="normal" in="SourceGraphic" in2="effect1_dropShadow_132_80" result="shape"/>
</filter>
<filter id="filter1_d_132_80" x="249" y="399" width="192" height="192" filterUnits="userSpaceOnUse" color-interpolation-filters="sRGB">
<feFlood flood-opacity="0" result="BackgroundImageFix"/>
<feColorMatrix in="SourceAlpha" type="matrix" values="0 0 0 0 0 0 0 0 0 0 0 0 0 0 0 0 0 0 127 0" result="hardAlpha"/>
<feOffset dy="12"/>
<feGaussianBlur stdDeviation="12"/>
<feComposite in2="hardAlpha" operator="out"/>
<feColorMatrix type="matrix" values="0 0 0 0 1 0 0 0 0 1 0 0 0 0 1 0 0 0 0.025 0"/>
<feBlend mode="normal" in2="BackgroundImageFix" result="effect1_dropShadow_132_80"/>
<feBlend mode="normal" in="SourceGraphic" in2="effect1_dropShadow_132_80" result="shape"/>
</filter>
<filter id="filter2_d_132_80" x="458" y="447" width="192" height="192" filterUnits="userSpaceOnUse" color-interpolation-filters="sRGB">
<feFlood flood-opacity="0" result="BackgroundImageFix"/>
<feColorMatrix in="SourceAlpha" type="matrix" values="0 0 0 0 0 0 0 0 0 0 0 0 0 0 0 0 0 0 127 0" result="hardAlpha"/>
<feOffset dy="12"/>
<feGaussianBlur stdDeviation="12"/>
<feComposite in2="hardAlpha" operator="out"/>
<feColorMatrix type="matrix" values="0 0 0 0 1 0 0 0 0 1 0 0 0 0 1 0 0 0 0.025 0"/>
<feBlend mode="normal" in2="BackgroundImageFix" result="effect1_dropShadow_132_80"/>
<feBlend mode="normal" in="SourceGraphic" in2="effect1_dropShadow_132_80" result="shape"/>
</filter>
<filter id="filter3_d_132_80" x="482" y="117" width="366" height="366" filterUnits="userSpaceOnUse" color-interpolation-filters="sRGB">
<feFlood flood-opacity="0" result="BackgroundImageFix"/>
<feColorMatrix in="SourceAlpha" type="matrix" values="0 0 0 0 0 0 0 0 0 0 0 0 0 0 0 0 0 0 127 0" result="hardAlpha"/>
<feOffset dy="12"/>
<feGaussianBlur stdDeviation="12"/>
<feComposite in2="hardAlpha" operator="out"/>
<feColorMatrix type="matrix" values="0 0 0 0 1 0 0 0 0 1 0 0 0 0 1 0 0 0 0.025 0"/>
<feBlend mode="normal" in2="BackgroundImageFix" result="effect1_dropShadow_132_80"/>
<feBlend mode="normal" in="SourceGraphic" in2="effect1_dropShadow_132_80" result="shape"/>
</filter>
<filter id="filter4_d_132_80" x="658" y="357" width="216" height="216" filterUnits="userSpaceOnUse" color-interpolation-filters="sRGB">
<feFlood flood-opacity="0" result="BackgroundImageFix"/>
<feColorMatrix in="SourceAlpha" type="matrix" values="0 0 0 0 0 0 0 0 0 0 0 0 0 0 0 0 0 0 127 0" result="hardAlpha"/>
<feOffset dy="12"/>
<feGaussianBlur stdDeviation="12"/>
<feComposite in2="hardAlpha" operator="out"/>
<feColorMatrix type="matrix" values="0 0 0 0 1 0 0 0 0 1 0 0 0 0 1 0 0 0 0.025 0"/>
<feBlend mode="normal" in2="BackgroundImageFix" result="effect1_dropShadow_132_80"/>
<feBlend mode="normal" in="SourceGraphic" in2="effect1_dropShadow_132_80" result="shape"/>
</filter>
<linearGradient id="paint0_linear_132_80" x1="474.757" y1="210.26" x2="265.582" y2="347.946" gradientUnits="userSpaceOnUse">
<stop stop-color="#CC39FF"/>
<stop offset="1" stop-color="#3478F6"/>
</linearGradient>
<linearGradient id="paint1_linear_132_80" x1="564.441" y1="495.86" x2="531.582" y2="557.512" gradientUnits="userSpaceOnUse">
<stop stop-color="#00FFA3"/>
<stop offset="1" stop-color="#DC1FFF"/>
</linearGradient>
<linearGradient id="paint2_linear_132_80" x1="564.441" y1="495.86" x2="531.582" y2="557.512" gradientUnits="userSpaceOnUse">
<stop stop-color="#00FFA3"/>
<stop offset="1" stop-color="#DC1FFF"/>
</linearGradient>
<linearGradient id="paint3_linear_132_80" x1="564.441" y1="495.86" x2="531.582" y2="557.512" gradientUnits="userSpaceOnUse">
<stop stop-color="#00FFA3"/>
<stop offset="1" stop-color="#DC1FFF"/>
</linearGradient>
<clipPath id="clip0_132_80">
<rect width="1062" height="748" fill="white"/>
</clipPath>
</defs>
</svg>
